<?xml version="1.0" ?><!DOCTYPE svg  PUBLIC '-//W3C//DTD SVG 1.0//EN'  'http://www.w3.org/TR/2001/REC-SVG-20010904/DTD/svg10.dtd'><svg height="64px" style="shape-rendering:geometricPrecision; text-rendering:geometricPrecision; image-rendering:optimizeQuality; fill-rule:evenodd; clip-rule:evenodd" version="1.0" viewBox="0 0 26000 63989" width="26px" xml:space="preserve" xmlns="http://www.w3.org/2000/svg" xmlns:xlink="http://www.w3.org/1999/xlink"><defs><style type="text/css">
   <![CDATA[
    .fil0 {fill:#27afb7;fill-rule:nonzero}
   ]]>
  </style></defs><g id="Layer_x0020_1"><path class="fil0" d="M9864 41034l6234 -31c248,-1525 959,-3541 1800,-5927 2571,-7286 6438,-18257 1094,-26891 -1910,531 -3854,797 -5825,798 -2008,1 -4043,-273 -6103,-822 -5501,8845 -1495,20149 1098,27453 770,2171 1424,4009 1702,5419zm378 4960l2759 12411 2757 -12411 -5516 0zm7709 -690l-3975 17893 -2 11c-81,366 -367,672 -757,757 -536,118 -1069,-221 -1187,-757l-3980 -17904c-32,-98 -50,-202 -50,-311l0 -26 0 -1325 -6557 3244c-494,243 -1092,41 -1336,-452 -70,-142 -103,-293 -103,-442l-4 0 0 -13999c0,-353 184,-663 461,-841l3311 -2618c-2530,-9353 -3217,-20840 8689,-28383l2 5c313,-198 725,-214 1059,-5 2923,1832 5084,3896 6648,6106 110,100 197,226 255,371 4573,6796 3634,14903 1718,21838l3397 2687c276,178 459,488 459,841l0 13999 -4 0c0,149 -33,300 -103,442 -243,494 -842,696 -1336,452l-6557 -3246 0 1352c0,109 -18,213 -50,311zm-7951 -2279l0 968 6000 0 0 -999 -6000 31zm8044 -1586l5955 2947 0 -11915 -2459 -1946c-579,1868 -1199,3625 -1760,5216 -844,2394 -1550,4394 -1736,5699zm-13678 -10839l-2366 1871 0 11915 5915 -2927c-235,-1235 -875,-3038 -1636,-5180 -607,-1710 -1287,-3627 -1913,-5679zm-3906 553c157,-100 341,-159 540,-159m16758 -24547c-1226,-1527 -2788,-2961 -4756,-4264 -1935,1294 -3479,2716 -4698,4232 1650,385 3272,579 4862,579 1548,0 3080,-183 4592,-547zm-4757 6548c1102,0 2105,448 2829,1172 724,724 1172,1727 1172,2829 0,1105 -448,2106 -1172,2830 -724,724 -1727,1172 -2829,1172 -1102,0 -2105,-448 -2829,-1172 -724,-724 -1172,-1724 -1172,-2830 0,-1102 448,-2105 1172,-2829 724,-724 1727,-1172 2829,-1172zm1414 2587c-361,-361 -863,-586 -1414,-586 -550,0 -1052,224 -1414,586 -361,361 -586,863 -586,1414 0,553 224,1054 586,1415 361,361 863,586 1414,586 550,0 1052,-224 1414,-586 361,-361 586,-862 586,-1415 0,-550 -224,-1052 -586,-1414z"/></g></svg>